# xmcd CD database file
#
# Track frame offsets:
#	150
#	20928
#	38198
#	54016
#	64378
#	82114
#	117355
#	134761
#	172816
#	188554
#	211926
#	234288
#	251541
#
# Disc length: 3854 seconds
#
# Revision: 0
# Processed by: cddbd v1.5.1PL2 Copyright (c) Steve Scherf et al.
# Submitted via: CDex 1.51
#
DISCID=b20f0c0d
DTITLE=Geraldo Flach - Meu Piano
DYEAR=2004
DGENRE=Jazz
TTITLE0=Eu não disse que te amava ?
TTITLE1=Um certo outono
TTITLE2=Choro por Júlio
TTITLE3=A tua canção
TTITLE4=Lua feiticeira
TTITLE5=Solitária
TTITLE6=Balada em San Telmo
TTITLE7=Cadê Lígia ?
TTITLE8=Feitiço do Villa
TTITLE9=Chamamonk
TTITLE10=Boi Barroso
TTITLE11=Mi longa paixão
TTITLE12=O Bife
EXTD=YEAR: 2004
EXTT0=
EXTT1=
EXTT2=
EXTT3=
EXTT4=
EXTT5=
EXTT6=
EXTT7=
EXTT8=
EXTT9=
EXTT10=
EXTT11=
EXTT12=
PLAYORDER=
